<?xml version="1.0" standalone="no"?>
<!DOCTYPE svg PUBLIC "-//W3C//DTD SVG 20010904//EN"
 "http://www.w3.org/TR/2001/REC-SVG-20010904/DTD/svg10.dtd">
<svg version="1.0" xmlns="http://www.w3.org/2000/svg"
 width="138.000000pt" height="124.000000pt" viewBox="0 0 138.000000 124.000000"
 preserveAspectRatio="xMidYMid meet">

<g transform="translate(0.000000,124.000000) scale(0.100000,-0.100000)"
fill="#000000" stroke="none">
<path d="M0 620 l0 -620 690 0 690 0 0 620 0 620 -690 0 -690 0 0 -620z m810
323 c36 -25 40 -32 40 -90 l0 -53 -49 0 c-47 0 -50 2 -53 28 -3 26 -5 27 -75
30 l-73 3 0 -40 c0 -42 2 -44 70 -56 90 -16 135 -32 161 -56 28 -26 29 -31 29
-111 -1 -129 -24 -148 -185 -148 -120 0 -155 12 -180 61 -9 17 -15 47 -13 67
l3 37 55 0 c55 0 55 0 58 -33 l3 -33 72 3 72 3 3 41 3 41 -48 12 c-213 54
-213 54 -213 177 0 63 4 85 18 101 25 29 36 31 162 32 93 1 120 -2 140 -16z
m48 -620 l-3 -48 -185 0 -185 0 -3 33 c-6 63 -11 62 193 62 l186 0 -3 -47z"/>
</g>
</svg>
